<?xml version="1.0" standalone="no"?><!DOCTYPE svg PUBLIC "-//W3C//DTD SVG 1.1//EN" "http://www.w3.org/Graphics/SVG/1.1/DTD/svg11.dtd"><svg t="1745689297921" class="icon" viewBox="0 0 1024 1024" version="1.1" xmlns="http://www.w3.org/2000/svg" p-id="48001" xmlns:xlink="http://www.w3.org/1999/xlink" width="200" height="200"><path d="M316.330667 195.669333a85.333333 85.333333 0 1 0-120.661334 120.661334 85.333333 85.333333 0 0 0 120.661334-120.661334zM135.338667 135.338667a170.666667 170.666667 0 0 1 267.690666 207.36L512 451.669333l341.333333-341.333333L913.664 170.666667 403.029333 681.301333a170.752 170.752 0 0 1-267.690666 207.36 170.666667 170.666667 0 0 1 207.36-267.690666L451.669333 512 342.698667 403.029333a170.752 170.752 0 0 1-207.36-267.690666zM640 579.669333L913.664 853.333333 853.333333 913.664 579.669333 640 640 579.669333z m-323.669333 128a85.333333 85.333333 0 1 0-120.661334 120.661334 85.333333 85.333333 0 0 0 120.661334-120.661334z" p-id="48002" fill="#0078d0"></path></svg>