<?xml version="1.0" standalone="no"?><!DOCTYPE svg PUBLIC "-//W3C//DTD SVG 1.1//EN" "http://www.w3.org/Graphics/SVG/1.1/DTD/svg11.dtd"><svg t="1745689882784" class="icon" viewBox="0 0 1024 1024" version="1.1" xmlns="http://www.w3.org/2000/svg" p-id="47857" xmlns:xlink="http://www.w3.org/1999/xlink" width="200" height="200"><path d="M320 42.666667h384v128H938.666667v85.333333h-86.570667l-6.954667 235.904-85.290666-2.517333L766.72 256H257.28l18.816 640H490.666667v85.333333H193.237333l-21.333333-725.333333H85.333333V170.666667h234.666667V42.666667z m85.333333 128h213.333334V128h-213.333334v42.666667zM554.666667 341.333333v298.666667h-85.333334V341.333333h85.333334z m234.666666 298.666667a149.333333 149.333333 0 1 0 0 298.666667 149.333333 149.333333 0 0 0 0-298.666667zM554.666667 789.333333a234.666667 234.666667 0 1 1 469.333333 0 234.666667 234.666667 0 0 1-469.333333 0z m277.333333-95.914666v78.250666l60.330667 60.330667-60.330667 60.330667-85.333333-85.333334v-113.578666h85.333333z" p-id="47858" fill="#0078d0"></path></svg>