<?xml version="1.0" standalone="no"?><!DOCTYPE svg PUBLIC "-//W3C//DTD SVG 1.1//EN" "http://www.w3.org/Graphics/SVG/1.1/DTD/svg11.dtd"><svg t="1745695112480" class="icon" viewBox="0 0 1024 1024" version="1.1" xmlns="http://www.w3.org/2000/svg" p-id="107699" xmlns:xlink="http://www.w3.org/1999/xlink" width="200" height="200"><path d="M128 42.666667h529.664L896 281.002667V490.666667h-85.333333V384h-256V128H213.333333v768h405.333334v85.333333H128V42.666667z m512 102.997333V298.666667h153.002667L640 145.664zM768 640c-39.68 0-64 27.989333-64 53.290667v42.666666h-85.333333v-42.666666C618.666667 612.608 689.92 554.666667 768 554.666667s149.333333 57.941333 149.333333 138.624c0 39.04-17.365333 73.642667-43.818666 98.133333L810.666667 850.730667v29.141333h-85.333334v-65.962667l90.112-85.034666c10.922667-10.026667 16.554667-22.613333 16.554667-35.584 0-25.301333-24.32-53.290667-64-53.290667z m-42.666667 298.496h85.461334V1024h-85.504v-85.504z" p-id="107700" fill="#0078d0"></path></svg>