<?xml version="1.0" standalone="no"?><!DOCTYPE svg PUBLIC "-//W3C//DTD SVG 1.1//EN" "http://www.w3.org/Graphics/SVG/1.1/DTD/svg11.dtd"><svg t="1745695085507" class="icon" viewBox="0 0 1024 1024" version="1.1" xmlns="http://www.w3.org/2000/svg" p-id="107495" xmlns:xlink="http://www.w3.org/1999/xlink" width="200" height="200"><path d="M298.666667 128h149.333333v85.333333H384v64H298.666667V128z m234.666666 0h128v85.333333h-128V128z m213.333334 0H896v149.333333h-85.333333V213.333333h-64V128zM213.333333 320V810.666667h490.666667v85.333333H128V320h85.333333z m170.666667 42.666667v128H298.666667v-128h85.333333z m512 0v128h-85.333333v-128h85.333333z m-512 213.333333V640h64v85.333333H298.666667v-149.333333h85.333333z m512 0V725.333333h-149.333333v-85.333333H810.666667v-64h85.333333zM533.333333 640h128v85.333333h-128v-85.333333z" p-id="107496" fill="#0078d0"></path></svg>